<?xml version="1.0" standalone="no"?>
<!DOCTYPE svg PUBLIC "-//W3C//DTD SVG 20010904//EN"
 "http://www.w3.org/TR/2001/REC-SVG-20010904/DTD/svg10.dtd">
<svg version="1.0" xmlns="http://www.w3.org/2000/svg"
 width="512.000000pt" height="512.000000pt" viewBox="0 0 512.000000 512.000000"
 preserveAspectRatio="xMidYMid meet">

<g transform="translate(0.000000,512.000000) scale(0.100000,-0.100000)"
fill="#000000" stroke="none">
<path d="M840 5106 c-102 -28 -184 -88 -238 -173 -54 -86 -62 -133 -62 -374 0
-188 3 -225 20 -280 35 -114 135 -217 246 -255 l54 -18 0 -162 0 -162 -247 -4
c-216 -4 -254 -7 -296 -23 -109 -44 -203 -145 -237 -254 -19 -59 -20 -92 -20
-556 l0 -492 23 -33 c38 -56 72 -75 135 -75 70 0 115 28 143 89 17 38 19 74
19 509 l0 468 25 24 24 25 1068 0 c1130 -1 1086 1 1111 -47 17 -31 17 -2915 0
-2946 -25 -48 19 -46 -1111 -47 l-1068 0 -24 25 -25 24 0 708 c0 669 -1 710
-19 749 -28 61 -73 89 -143 89 -63 0 -97 -19 -135 -75 l-23 -33 0 -732 c0
-703 1 -736 20 -796 35 -112 132 -213 243 -255 50 -18 88 -19 1182 -19 l1130
0 67 32 c116 55 191 145 223 270 23 86 23 2980 0 3066 -33 126 -99 208 -213
264 l-76 38 -248 3 -248 4 0 161 0 162 48 17 c110 39 200 126 243 235 21 53
23 78 27 270 2 131 0 232 -7 265 -28 131 -101 227 -219 285 l-76 38 -635 2
c-485 2 -647 -1 -681 -11z m1261 -319 c34 -26 39 -54 39 -227 0 -173 -5 -201
-39 -227 -12 -9 -94 -12 -308 -13 l-293 0 0 53 c0 66 -28 127 -71 158 -46 32
-134 34 -176 3 -53 -39 -73 -81 -73 -150 l0 -64 -135 0 c-131 0 -137 1 -160
25 -25 24 -25 26 -25 215 0 189 0 191 25 215 l24 25 588 0 c446 -1 592 -4 604
-13z m-281 -947 l0 -160 -320 0 -320 0 0 160 0 160 320 0 320 0 0 -160z"/>
<path d="M3630 3501 c-208 -67 -340 -240 -341 -445 -1 -101 8 -139 48 -226 33
-71 54 -94 367 -406 308 -308 336 -334 407 -368 98 -48 185 -63 283 -49 179
26 324 145 387 319 17 45 22 82 22 154 0 106 -20 178 -73 259 -16 25 -177 193
-357 372 -344 343 -370 364 -488 395 -70 19 -189 17 -255 -5z m221 -328 c21
-13 71 -62 112 -107 l76 -83 -107 -106 c-59 -59 -112 -107 -118 -107 -17 0
-192 184 -204 214 -34 91 19 195 111 216 47 10 88 2 130 -27z m522 -517 c98
-105 117 -136 117 -183 0 -43 -39 -110 -76 -134 -40 -24 -117 -29 -155 -9 -13
7 -68 56 -122 109 l-97 95 112 113 c62 62 115 113 118 113 4 0 50 -47 103
-104z"/>
<path d="M1440 2469 c-14 -5 -36 -20 -48 -32 -46 -43 -52 -67 -52 -216 l0
-140 -149 -3 c-133 -3 -153 -5 -178 -24 -98 -73 -98 -195 0 -268 25 -19 45
-21 178 -24 l149 -3 0 -143 c0 -132 2 -146 23 -176 38 -56 72 -75 135 -75 44
0 65 5 91 24 57 41 71 87 71 238 l0 132 148 3 c144 3 150 4 184 30 94 71 82
214 -22 269 -29 16 -58 19 -172 19 l-138 0 0 133 c0 151 -14 197 -70 237 -37
26 -111 36 -150 19z"/>
<path d="M4477 1629 c-112 -26 -137 -46 -494 -402 -363 -362 -385 -389 -418
-512 -83 -321 199 -636 528 -588 155 22 164 29 544 406 362 360 382 384 418
511 23 79 16 208 -15 289 -49 130 -173 245 -306 287 -70 21 -187 26 -257 9z
m189 -325 c45 -22 76 -66 82 -119 8 -72 -4 -94 -111 -202 l-101 -103 -113 112
-113 113 88 88 c48 49 101 98 117 108 37 23 105 25 151 3z m-366 -652 c0 -4
-44 -51 -98 -104 -105 -103 -133 -117 -209 -103 -47 9 -97 59 -114 113 -21 72
-2 112 108 224 l96 97 108 -109 c60 -60 109 -113 109 -118z"/>
<path d="M800 949 c-155 -65 -120 -291 47 -306 81 -7 153 50 169 134 9 48 -20
117 -62 150 -39 29 -112 40 -154 22z"/>
</g>
</svg>
